<svg xmlns="http://www.w3.org/2000/svg" viewBox="0 0 80 80">

  <circle cx="40" cy="40" r="22" fill="#4a4a4a" stroke="#333" stroke-width="1" />
    <g stroke="#00ff00" stroke-width="1.5" fill="none">
    <line x1="35" y1="40" x2="45" y2="40" />
    <line x1="40" y1="35" x2="40" y2="45" />
    <circle cx="40" cy="40" r="5" />
  </g>
  <line x1="40" y1="40" x2="10" y2="40" stroke="#00ff00" stroke-width="1.5" stroke-dasharray="3,3" />
  <line x1="40" y1="40" x2="70" y2="40" stroke="#00ff00" stroke-width="1.5" stroke-dasharray="3,3" />
  <line x1="40" y1="40" x2="40" y2="10" stroke="#00ff00" stroke-width="1.5" stroke-dasharray="3,3" />
  <line x1="40" y1="40" x2="40" y2="70" stroke="#00ff00" stroke-width="1.5" stroke-dasharray="3,3" />
  <g stroke="#00ffff" stroke-width="1.5" fill="none">
    <line x1="10" y1="40" x2="18" y2="40" />
    <polyline points="15,37 18,40 15,43" />
    <line x1="70" y1="40" x2="62" y2="40" />
    <polyline points="65,37 62,40 65,43" />
    <line x1="40" y1="10" x2="40" y2="18" />
    <polyline points="37,15 40,18 43,15" />
    <line x1="40" y1="70" x2="40" y2="62" />
    <polyline points="37,65 40,62 43,65" />
  </g>
  <circle cx="10" cy="40" r="3" fill="#ff00ff" stroke="none" />
  <circle cx="70" cy="40" r="3" fill="#ff00ff" stroke="none" />
  <circle cx="40" cy="10" r="3" fill="#ff00ff" stroke="none" />
  <circle cx="40" cy="70" r="3" fill="#ff00ff" stroke="none" />
</svg>
