<svg xmlns="http://www.w3.org/2000/svg" viewBox="0 0 80 80">

  <rect x="5" y="5" width="70" height="70" fill="#4a4a4a" stroke="#333" stroke-width="1" rx="2" />
  <circle cx="50" cy="40" r="22" fill="#1a1a1a" stroke="#000" stroke-width="1.5" />
    <g stroke="#00ff00" stroke-width="1.5" fill="none">
    <line x1="10" y1="40" x2="20" y2="40" />
    <line x1="15" y1="35" x2="15" y2="45" />
    <circle cx="15" cy="40" r="5" />
  </g>
  <line x1="20" y1="40" x2="50" y2="40" stroke="#00ff00" stroke-width="1.5" stroke-dasharray="3,3" />
  <g stroke="#00ffff" stroke-width="1.5" fill="none">
    <line x1="50" y1="40" x2="31" y2="40" />
    <polyline points="34,37 31,40 34,43" />
    <line x1="50" y1="40" x2="69" y2="40" />
    <polyline points="66,37 69,40 66,43" />
    <line x1="50" y1="40" x2="50" y2="21" />
    <polyline points="47,24 50,21 53,24" />
    <line x1="50" y1="40" x2="50" y2="59" />
    <polyline points="47,56 50,59 53,56" />
  </g>
  <circle cx="50" cy="40" r="3" fill="#ff00ff" stroke="none" />
</svg>
